<svg width="37" height="22" viewBox="0 0 37 22" fill="none" xmlns="http://www.w3.org/2000/svg">
<path d="M28.72 0.75C31.644 0.75 33.718 1.27133 34.942 2.314C36.1887 3.334 36.812 5 36.812 7.312C36.812 8.49067 36.676 9.85067 36.404 11.392C35.724 15.2 34.5567 17.92 32.902 19.552C31.27 21.184 28.6293 22 24.98 22H15.936L19.676 0.75H28.72ZM27.836 6.19H25.15L23.348 16.56H26.034C26.918 16.56 27.5753 16.458 28.006 16.254C28.4367 16.0273 28.72 15.5287 28.856 14.758L30.046 7.992C30.0687 7.856 30.08 7.67467 30.08 7.448C30.08 6.92667 29.8987 6.58667 29.536 6.428C29.1733 6.26933 28.6067 6.19 27.836 6.19ZM14.916 21.898L0.5 20.368H15.188L14.916 21.898ZM16.072 15.336L1.656 13.806H16.344L16.072 15.336ZM16.65 12.072L2.234 10.542H16.922L16.65 12.072ZM17.228 8.808L2.812 7.278H17.5L17.228 8.808ZM17.806 5.544L3.39 4.014H18.044L17.806 5.544ZM15.494 18.6L1.078 17.07H15.766L15.494 18.6ZM18.35 2.28L3.968 0.75H18.622L18.35 2.28Z" fill="#100477"/>
</svg>
